<?xml version="1.0" encoding="UTF-8"?>
<!DOCTYPE svg PUBLIC "-//W3C//DTD SVG 1.1//EN" "http://www.w3.org/Graphics/SVG/1.1/DTD/svg11.dtd">
<!-- Creator: CorelDRAW 2020 (64 Bit) -->
<svg xmlns="http://www.w3.org/2000/svg" xml:space="preserve" width="423.333mm" height="423.333mm" version="1.1" style="shape-rendering:geometricPrecision; text-rendering:geometricPrecision; image-rendering:optimizeQuality; fill-rule:evenodd; clip-rule:evenodd"
viewBox="0 0 42333.32 42333.32"
 xmlns:xlink="http://www.w3.org/1999/xlink"
 xmlns:xodm="http://www.corel.com/coreldraw/odm/2003">
 <defs>
  <style type="text/css">
   <![CDATA[
    .fil2 {fill:#061C43}
    .fil0 {fill:#990002}
    .fil1 {fill:#FEFEFE}
   ]]>
  </style>
   <clipPath id="id0">
    <rect x="84.66" y="-93.14" width="42333.33" height="42333.33"/>
   </clipPath>
 </defs>
 <g id="Camada_x0020_1">
  <metadata id="CorelCorpID_0Corel-Layer"/>
  <g style="clip-path:url(#id0)">
   <image id="logo.png" x="84.66" y="-93.23" width="42333.42" height="42333.42" xlink:href="logo(vetor)_Images\logo(vetor)_ImgID1.png"/>
  </g>
  <g id="_852147088">
   <polygon class="fil0" points="84.66,42240.19 42417.99,42240.19 42417.99,-93.14 84.66,-93.14 "/>
   <path class="fil1" d="M8673.79 4463.17c-2185.21,364.81 -3882.82,2011.21 -4231.92,4205.32 -149.1,937.3 -45.6,18634.05 -45.6,20871.66 0,1111.6 -113.6,3165.11 90.4,4151.01 424.9,2053.81 2128.11,3769.81 4341.22,4028.32 1018.2,119 18585.85,33.8 20890.06,33.8 1175.9,0 3083.81,111.4 4174.51,-67.5 2140.91,-351.21 3815.01,-2070.31 4164.22,-4216.22 152.4,-936.4 49.7,-18627.15 49.7,-20862.66 0,-1119.8 113.3,-3147.31 -94.5,-4145.31 -431.51,-2072.41 -2109.31,-3765.02 -4332.42,-4031.52 -1037.6,-124.5 -18575.95,-36.3 -20894.76,-36.3 -1162.9,0 -3052.71,-107.2 -4110.91,69.4z"/>
   <path class="fil2" d="M9514.29 4795.77c-2270.81,236.91 -3884.61,1802.61 -4413.51,3770.62 -346.61,1290 -144.81,6336.42 -144.81,8019.82 0,1682.31 -88.8,15053.75 28.3,16343.35 199.61,2197.31 1924.81,3812.51 3829.52,4302.41 1367.8,351.8 6206.52,145 7950.22,145 1678.51,0 14960.15,85.9 16264.15,-37.2 2192.71,-207.2 3872.01,-1833.5 4372.11,-3759.11 352.6,-1357.4 146.2,-6282.02 146.2,-8019.82 0,-1471.21 77.3,-15276.85 -35.1,-16343.15 -224.8,-2131.71 -1894.3,-3872.11 -3813.91,-4309.71 -1111.2,-253.31 -6437.12,-137.91 -7958.82,-137.91 -1343.61,0 -15286.85,-72.2 -16224.35,25.7z"/>
   <path class="fil1" d="M32522.96 22936.53c-131.9,-214 -995.9,-1108.6 -1229.3,-1322.4 -955.11,-874.71 -2728.11,-3188.21 -3460.72,-4242.72 -994.8,-1431.8 -1984.4,-3266.11 -2656.4,-4964.51 -240.9,-608.8 -439.9,-1347.51 -670.31,-1884.11 147.4,89.9 793.71,1495.21 909.41,1729.71 1377.6,2791.51 4724.21,7198.02 6634.62,9789.43 395.9,536.9 671,1278.6 1859.3,852.5l-570.1 -5882.12c-134.6,-1408.1 -574,-4796.61 -429.9,-6050.22 -8.5,36.3 834.9,5186.62 922,5822.92 262,1912.61 465.6,4705.22 696.11,6162.12 397.4,41.3 1326,83.8 1667.9,-52.7l20.4 -14431.64 -173.2 -62.6c-495.1,-139.9 -14409.44,-47.4 -14648.94,-43 -6.1,1118.7 1052.5,3997.31 1475.1,4915.31 1719.6,3735.11 3940.71,6559.12 7173.22,8916.63 975,711 1008.8,761.4 2480.81,747.4z"/>
   <path class="fil1" d="M6350.68 22899.73c376.7,118.1 1384.3,101.8 1740.9,0l678.61 -6003.92c166.9,-1254.6 583.8,-4966.71 950.2,-5849.42 47.2,2119.41 -869,9446.53 -1010.7,11906.14 1556.8,32.5 1352.6,-209.5 3017.91,-2428.91 1492.8,-1989.3 4289.51,-5924.52 5413.31,-8134.32 238.8,-469.4 691.3,-1471.01 950.9,-1808.51 -790.7,2656.01 -2005.4,4812.12 -3334.41,6791.12 -596,887.51 -1506.9,2141.11 -2181,2902.61 -430.3,486.1 -815.2,855.4 -1224.21,1312.41 -393.3,439.7 -1016.2,875.5 -1287.8,1365.4 1539.91,33.1 2021.61,-277.5 3353.81,-1415.1 319.9,-273.2 546.6,-496.41 849.1,-757.01 2188.91,-1886.2 4118.02,-4718.11 5390.42,-7485.22 511.7,-1112.7 1508.4,-3597.81 1541.2,-4942.81l-14833.34 1.1 -14.9 14546.44z"/>
   <path class="fil1" d="M19145.32 16136.31c-1524.71,421.9 -1409.81,1549.4 -1409.81,3243.91 0,1579.3 -16.7,3167.21 -1.8,4745.41 15.6,1666.31 1489.01,2250.61 2568.71,1839.81 361.1,-137.4 1126.41,-667.2 1477.11,-890.9 874,-557.8 3917.71,-2327.41 4277.61,-2751.81 348,-410.4 582,-1160.21 355.7,-1841.41 -192.5,-579.6 -634.3,-923.3 -1132.9,-1232.7l-4342.82 -2685.31c-496.5,-300.7 -1077.4,-624.6 -1791.8,-427z"/>
   <path class="fil1" d="M21224.42 26894.04c-322.4,2286.41 435.51,6189.02 2145.11,7723.93 1470.61,1320.3 2469.51,1257.6 3859.41,-115.7 457.2,-451.81 877.71,-1023.51 1197.11,-1765.61 743.3,-1727.31 1046.4,-3814.81 875.1,-5817.42 -485.3,-74.5 -2764.11,1221.21 -6256.72,483.6 -379.8,-80.2 -1642.3,-583 -1820.01,-508.8z"/>
   <path class="fil1" d="M13207.6 31741.56c-26.7,510.2 1337.2,1763.1 1858.71,2289 170.7,172.1 290.6,229.5 472.1,378.41 351.2,287.9 572.9,468.1 963.4,729.1 687,459.2 1420.8,850.2 2313.11,1071.8 856.3,212.7 2297.9,222.4 2938.51,-242.5 287.8,-208.8 516,-678.1 644.7,-1047.8 451,-1296.11 -354.9,-519.4 -1141.91,-3521.51 -898,-3426.21 461.61,-1853.11 -1557.1,-4367.82 -195.7,-243.7 -152.7,-295.1 -517,-363.7 -539.7,669.8 -101.9,968.4 -2420.61,3041.31 -1957.71,1750.31 -3029.51,1707.91 -3553.91,2033.71z"/>
   <path class="fil1" d="M6349.58 25137.54c0,3052.11 86.5,6605.62 -12,9657.13 355,213 1623.6,1462.5 2262.01,1132 -453.31,-197.6 -580.91,-178.8 -788.71,-533.3 815.41,160.2 1909.31,239.6 2495.11,-349.8 -320.7,-226 -424,-133.8 -679.7,-507.7 1115.3,-69 1983.31,-122.1 2552.91,-847.01 47.2,-336.7 -812.41,-3776.91 -944.31,-4553.01 -180.8,-1063.7 -393.7,-2573.11 -451.5,-3690.91 -41.3,-799.2 100.9,-794.6 -623.4,-794.6 -857.6,0 -562.1,-272.31 -551.3,1589.9 3.9,674.7 9.4,1415.5 32.3,2114.61 46,1400.4 93,3060.41 42.2,4449.81 -48.2,-68.8 -57.6,-66.6 -108.3,-202.6l-112.7 -686.5c-269.7,-2684.01 -98.4,-4539.82 29.5,-7258.32l-872.5 -3.4c-354.91,801.3 -677.81,8602.12 -967.01,9267.32 -164.2,-2841.4 162.6,-6370.12 315.2,-9280.62 -1673.3,-64.9 -1617.8,-91.3 -1617.8,497z"/>
   <path class="fil1" d="M30402.75 33688.86c455.3,720.31 1564.01,771.31 2569.01,847.01 -235.7,313.8 -356.9,358.4 -735.7,470.2 83.4,99.4 28.9,57.8 151.9,147 69.2,50.1 66.9,50.9 170,101.2 845,412.5 1438.5,257.3 2218.71,140.4 -264.6,379.8 -472.31,315 -847.21,575.6 876.41,94.3 1877.31,-945.9 2297.91,-1265l-10.1 -9145.03c7.2,-882.5 409.8,-1037.4 -1563,-911.1 209.1,3814.11 418.3,5642.61 278.7,9287.92 -183.1,-431.9 -376,-3793.21 -444.81,-4574.71 -82.7,-938.7 -251.6,-4015.41 -489,-4696.01l-884.3 -16.8c96.3,2026.3 426.4,6461.82 -217.1,8329.72 -127.8,-683.6 34.8,-3423.01 37.2,-4370.41l78.2 -3394.51c40.9,-683.5 81.1,-564 -585.8,-564 -690.8,0 -561,36.2 -603.3,740.6 -25,416.7 -70.4,805.8 -111.1,1226.2 -80.9,835 -194.7,1638.51 -344.8,2455.51 -147.2,801.3 -1028.51,4222.81 -965.41,4616.21z"/>
   <path class="fil2" d="M19225.42 16814.41c-1165.41,375.3 -852.4,1831.21 -852.4,3158.41 0,1347.51 -28.4,2724.61 -2.4,4068.11 28.7,1484.41 1146.9,1657.51 2242.6,968.41 824.61,-518.7 1640.01,-1002.91 2511.51,-1553.71 1215.4,-768.2 3527.31,-1671 2479.91,-3095.11 -307.4,-418 -3079.71,-2035.8 -3639.21,-2371.4 -1010.71,-606.21 -1923.71,-1437.51 -2740.01,-1174.71z"/>
   <path class="fil1" d="M6453.68 7329.58l29593.79 7.3c-1628.01,-1775.2 -3703.21,-1482.8 -6583.52,-1482.8l-16340.65 0c-2793.41,0 -5143.92,-275.9 -6669.62,1475.5z"/>
   <path class="fil2" d="M32860.56 21459.23c-556.6,-2961.11 -3419.31,-6909.93 -4864.51,-9417.13 -226.21,-392.5 -507.31,-1024.31 -838.71,-1307.91 539.9,2346.51 3489.11,6967.92 4891.42,9364.13l811.8 1360.91z"/>
   <path class="fil2" d="M9837.89 21390.53c543.5,-726.21 4067.71,-6970.53 4463.61,-7771.23 322.5,-652.2 1062.71,-2236.9 1202.61,-2948.61l-1543.11 2518.01c-1045.2,1714.01 -3995.51,6373.22 -4123.11,8201.83z"/>
   <path class="fil2" d="M25230.64 33307.66c807,0 1793.8,-293.5 2126.9,-1083.9 -2260.2,568.8 -1980,365.8 -4163.71,-0.1 186,494.6 1186.2,1084 2036.81,1084z"/>
   <path class="fil2" d="M18722.32 34646.07c508.2,-309.4 339.2,-642.41 1751.3,-1565.21 227.7,-148.8 507.7,-250.6 613.1,-465.8 -1436.4,-240.3 -2416.9,646.5 -2364.4,2031.01z"/>
   <path class="fil2" d="M26098.84 30201.35c211.2,-248.8 446.5,-668.1 752,-754.1 457.9,-128.8 902.7,129 1321.61,166.6 -548.91,-936.3 -2224.21,-1028.5 -2073.61,587.5z"/>
   <path class="fil2" d="M22357.93 29613.95c372.9,-60.1 949,-286.5 1293.7,-192.3 389.4,106.5 516.7,522.4 779.4,763.6 128.7,-1692.9 -1714.8,-1424.9 -2073.1,-571.3z"/>
   <path class="fil2" d="M18605.72 30874.15l106.6 85.9c742.4,384.21 1930.5,-226.8 1744.8,-1472.3 -445.6,402.3 -362.6,1015.3 -1851.4,1386.4z"/>
   <path class="fil2" d="M15774.91 33434.86c467.9,292.9 1861.6,48.1 1729.5,-1539.3 -191.4,125.6 -434.1,671.3 -687.9,914.1 -376.6,360.3 -712.6,364.5 -1041.6,625.2z"/>
  </g>
 </g>
</svg>
